<?xml version="1.0" encoding="UTF-8"?>
<!DOCTYPE svg PUBLIC "-//W3C//DTD SVG 1.1//EN" "http://www.w3.org/Graphics/SVG/1.1/DTD/svg11.dtd">
<!-- Creator: CorelDRAW -->
<svg xmlns="http://www.w3.org/2000/svg" xml:space="preserve" width="177.8mm" height="177.8mm" version="1.1" style="shape-rendering:geometricPrecision; text-rendering:geometricPrecision; image-rendering:optimizeQuality; fill-rule:evenodd; clip-rule:evenodd"
viewBox="0 0 17780 17780"
 xmlns:xlink="http://www.w3.org/1999/xlink"
 xmlns:xodm="http://www.corel.com/coreldraw/odm/2003">
 <defs>
  <style type="text/css">
   <![CDATA[
    .fil0 {fill:#9E2826}
    .fil1 {fill:#3D3937}
   ]]>
  </style>
 </defs>
 <g id="Layer_x0020_1">
  <metadata id="CorelCorpID_0Corel-Layer"/>
  <g id="_105553152803584">
   <path class="fil0" d="M15488.82 6536.34l11.43 10.88c-755.23,1448.9 -906.08,1457.72 -997.73,1501.01 -68.79,32.45 -104.95,-77.97 -114.48,-108.76 -46.53,-311.47 33.83,-726.06 1100.77,-1403.13l0.01 0zm-6448.04 1750.15c66.39,-442.31 297.81,-798.44 524.23,-925.67 31.54,-18.95 61.06,14.58 67.73,58.92 20.85,106.8 -200.24,597.8 -591.96,866.75l0 0zm-1474.54 -309.07c126.82,-694.69 313.72,-1316 524.93,-1512.01 -31.99,377.28 -237,1041.08 -513.47,1522.88l-11.46 -10.87zm-790.82 324.49c-43.04,-288.01 -142.49,-786.44 -440.2,-711.91 -288.36,73.77 -606.53,309.39 -822.68,636.56 -226.59,322.68 -356.73,672.78 -276.12,1146.17 105.31,572.88 384.64,860.15 632.92,813.54 601.59,-113.06 1012.65,-1171.61 906.08,-1884.36l0 0zm-585.23 25.26c616.48,-76.49 55.35,895.7 6.42,1060.48 -89.92,153.67 -172.19,292.88 -329.74,322.51 -119.34,22.44 -218.62,-17.56 -246.1,-201.26 -29.35,-196.39 24.42,-460.55 108.66,-619.65 115.75,-210.61 317.43,-404.85 460.76,-562.08l0 0zm-2254.1 1009.86l11.45 10.87c-112.4,594.28 -312.59,1159.44 -529.76,1709.38 -422.39,392.01 -763,1035.69 -685.23,1457.43 25.61,138.5 97.05,255.34 216.44,232.91 324.64,-61 890.2,-1235.47 1032.89,-1627.01l665.25 -836.02c562.16,-704.88 521.17,-749.3 489.03,-1029.79l-915.82 1096.92 -11.45 -10.86c253.01,-835.63 471.38,-1443.32 594.25,-2033.02 11.54,-54.33 43.22,-170.99 33.73,-234.32 -12.32,-82.37 -86.77,-120.47 -144.96,-148.66 -42.92,-24.48 -149.78,-82.55 -192.76,-74.47 -42.95,8.08 -74.51,59.58 -97.47,103.01l-1484.03 2089.54c-68.88,97.58 -195.03,238.55 -295.29,257.39 -105.03,19.75 -159.33,-80.75 -203.1,-209.34 -99.87,-306.89 518.82,-2012.39 1862.97,-2838.14l11.45 10.88 -168.31 253.1c-28.68,37.97 -110.91,144.58 -101.46,207.9 7.6,50.69 37.13,84.24 75.34,77.08 42.94,-8.11 137.47,-32.38 711.05,-726.35 83.19,-100.31 169.23,-214.16 144.6,-378.87 -17.99,-120.37 -79.83,-304.18 -146.5,-389.31 -66.74,-85.17 -123.04,-100.64 -211.87,-70.94 -1288.34,444.02 -2018.89,1499.68 -2276.32,2043.06 -220.08,432.15 -430.02,1162.02 -348.55,1706.85 66.32,443.44 281.63,800.31 667.34,786.41 278.74,-6.77 640.22,-543.67 843.89,-822.93l453.2 -612.7zm11423.26 -1893.82l11.43 10.88c-37.29,177.47 -101.68,534.77 -71.34,737.47 27.59,184.75 121.96,323.36 279.51,293.76 233.97,-43.99 772.16,-843.1 931.05,-1192.11l-73.23 -227.24c-177.83,222.34 -401.64,596.53 -602.16,634.24 -76.37,14.36 -154.63,-16.54 -170.75,-124.25 -44.52,-297.78 304.56,-819.25 274.22,-1022 -20.81,-139.35 -78.99,-200.1 -177.31,-233.72 40.15,-27.1 154.84,-113.76 143.44,-189.78 -11.35,-76 -137.09,-293.39 -355.74,-245.77 -514.24,114.87 -1524.71,1032.17 -1545.45,1794.89 -141.57,177.26 -336.13,408.44 -453.35,430.49 -57.26,10.76 -112.61,-30.97 -124.92,-113.31 -9.49,-63.36 -26.6,-79.66 198.33,-610.42 44.06,-99.49 193.32,-414.13 175.33,-534.5 -21.76,-145.71 -160.06,-282.55 -274.6,-261.01 -262.61,49.33 -979.95,1226.26 -1176.94,1517.3l-36.93 -247.09c245.85,-456.51 1451.5,-2832.45 1387.08,-3263.26 -18.94,-126.69 -154.48,-146.8 -230.86,-132.44 -162.34,30.51 -946.61,1317.68 -1325.31,2658.92 -66.85,232.01 -121.96,441.3 -142.31,663.94 -233.72,337.04 -570.94,824.86 -921.07,890.65 -248.25,46.64 -392.18,-128.2 -413.99,-273.93 -26.49,-177.41 45.2,-288.57 135.12,-409.64l341.35 -474.49c22.79,119.45 94.15,268.85 204.01,248.21 128.9,-24.2 433.1,-582.91 381.03,-931.3 -28.39,-190.1 -110.42,-278.88 -258.41,-251.04 -267.33,50.22 -674.54,478.43 -857.18,734.22 -201.64,281.68 -316.12,478.6 -323.46,793.11 -213.6,315.73 -539.29,834.46 -871.78,896.97 -152.79,28.71 -322.65,-24.03 -344.35,-267.48l-11.29 -141.18c857.01,-571.36 1020.84,-1084.12 974.41,-1394.55 -37.89,-253.38 -236.43,-268.21 -389.19,-239.5 -527.57,93.64 -1015.11,813.21 -1062.99,1533.97 -161.29,268.14 -456.1,711.97 -709.57,759.63 -128.9,24.24 -214.67,-89.92 -279.44,-227.57 -46.63,-147.57 -58.81,-327.63 -31.96,-443.41 837.11,-1525.05 877.85,-2105.89 821.34,-2714.02 -7.58,-83.24 -49.39,-231.69 -130.53,-216.44 -152.79,28.71 -518.27,703.13 -835.13,1472.61 -167.07,402.55 -270.26,902.16 -279.82,1396.68l0.32 -0.43 -0.71 24.17c-438.43,1543.33 -949.08,1905.5 -976.46,1674.78 -2.71,145.13 17.01,261.37 99.38,264.23 247.27,8.68 762.04,-611.58 894.72,-1089.45l46.64 -130.39c68.82,317.36 216.39,649.08 521.19,591.75 351.09,-65.97 659.98,-605.68 872.56,-1017.37 1.8,12.34 3.77,24.73 5.93,37.04 72.07,416.35 296.89,798.51 645.37,733.07 431.2,-81.07 831.92,-666.82 1068.91,-1152.07 73.98,460.84 318,871.9 680.41,803.77 387.1,-72.74 764.78,-614.15 1009.96,-1061.26 2.83,24.31 6.07,48.93 9.81,73.94 21.77,145.7 119.49,635.36 287.41,603.82 152.76,-28.72 291.08,-745.1 996.67,-1639.75l11.43 10.87c-127.35,330.05 -384.81,873.44 -325.12,1272.57 25.58,171.06 126.72,322.44 269.94,295.53 212.52,-39.91 570.44,-525.86 798.09,-849.21 109.22,290.05 379.87,561.62 495.65,539.89 109.83,-20.68 366.12,-407.46 442.6,-519.57l369.01 -552.42z"/>
   <path class="fil1" d="M15913.07 9976.12c14.88,-67.59 57.99,-134.16 140.01,-112.39 73.56,16.44 93.28,97.82 81.39,161.75l-221.4 -49.36zm240.7 111.44c28.9,6.39 39.68,-5.14 44.52,-31.25 19.93,-107.63 -23.39,-231.99 -133.35,-256.47 -113,-25.15 -201.16,67.24 -223.56,188.28 -21.94,118.53 13.72,241.33 142.66,270.08 78.85,17.57 171.77,-19.65 178.47,-55.8 3.93,-21.03 -6.06,-35.53 -18.2,-38.21 -25,-5.57 -58.98,49.88 -147.67,30.09 -75.11,-16.69 -107.99,-86.18 -93.84,-162.66l250.97 55.94zm-564.02 35.07c-4.13,24.41 6.2,42.37 26.73,46.53 20.57,4.2 36.09,-8.53 40.19,-32.98l36.06 -213.4c14.67,-86.92 68.92,-109.92 109.77,-109.5 29.18,-0.18 45.16,-10.9 48.72,-32 3.57,-21.09 -7.3,-40.74 -30.86,-45.54 -38.8,-7.83 -83.4,27.66 -104.43,59.16l-1.55 -0.35 6.42 -38c4.13,-24.41 -6.24,-42.26 -26.81,-46.39 -20.52,-4.16 -36.05,8.4 -40.11,32.85l-64.13 379.62zm-334.5 -255.59c10.4,-76.3 51.78,-161.46 134.43,-148.06 82.7,13.51 99.45,108.17 89.08,184.54 -10.44,76.34 -51.82,161.54 -134.48,148.03 -82.61,-13.44 -99.45,-108.09 -89.04,-184.51l0.01 0zm-67.39 -10.97c-16.33,119.67 32.81,241.41 147.6,260.14 114.87,18.73 194.28,-82.09 210.61,-201.75 16.34,-119.6 -32.74,-241.2 -147.57,-259.93 -114.82,-18.73 -194.31,81.95 -210.64,201.54zm-35.27 -397.08c2.57,-24.73 -8.9,-41.63 -29.68,-44.24 -20.73,-2.58 -35.38,11.15 -37.99,35.88l-60.92 582.92c-2.51,24.7 8.96,41.85 29.66,44.39 20.78,2.57 35.49,-11.33 38.03,-36.02l60.9 -582.93zm-490.22 336.9c6.84,-76.8 44.09,-164.29 127.31,-155.61 83.19,8.64 104.42,102.23 97.65,179.03 -6.81,76.84 -44.06,164.26 -127.28,155.58 -83.19,-8.65 -104.5,-102.1 -97.69,-179l0.01 0zm306.21 -165.42c2.36,-26.46 -15.21,-38.66 -28.33,-40 -13.83,-1.45 -32.5,6.91 -34.86,33.4l-2.08 23.92 -1.52 -0.14c-28.21,-41.73 -59.37,-67.41 -106.36,-72.28 -115.6,-12 -190.22,93.06 -200.87,213.46 -10.68,120.37 44.17,239.15 159.7,251.11 43.96,4.62 84.42,-13.76 117.83,-56.8l1.49 0.22 -2.75 31.53c-2.37,26.46 14.49,38.74 28.28,40.19 13.13,1.33 32.53,-7.17 34.82,-33.62l34.65 -390.99zm-748.74 136.03c3.14,-77.15 36.23,-166.58 119.76,-162.77 83.51,3.81 109.16,95.96 105.98,173.11 -3.14,77.08 -36.23,166.58 -119.73,162.74 -83.57,-3.82 -109.19,-96 -106.01,-173.08zm294.89 -183.05c1.13,-26.57 -17.04,-37.79 -30.2,-38.35 -18.56,-0.85 -36.76,8.64 -37.89,35.21l-0.85 20.53 -1.51 -0.07c-16.65,-28.23 -57.97,-60.19 -102.03,-62.16 -115.99,-5.33 -185.56,103.93 -190.5,224.75 -4.97,120.79 55.39,236.19 171.38,241.44 46.39,2.15 84.56,-21.97 107.07,-60.46l1.52 0.07 -1.58 39.44c-2.69,65.26 -31.3,139.45 -117.91,135.5 -73.45,-3.35 -101.42,-57.82 -132.36,-59.27 -21.66,-0.98 -29.46,18.38 -30.09,33.84 -1.58,38.55 83.99,87.06 154.37,90.31 111.34,5.08 188.95,-73.77 194.56,-209.31l16.05 -391.47 -0.03 0zm-770.05 363c-0.24,24.8 12.77,40.5 33.66,40.64 20.88,0.14 34.18,-15.34 34.43,-40.21l2.4 -248.64c0.74,-79.76 51.36,-111.97 96.23,-111.65 44.92,0.28 94.9,33.23 94.13,112.99l-2.33 248.71c-0.25,24.8 12.77,40.5 33.72,40.64 20.89,0.17 34.22,-15.31 34.4,-40.22l2.43 -253.01c1.2,-128.52 -78.1,-173.74 -141.57,-174.17 -40.99,-0.28 -83.78,16.58 -114.33,59.24l-1.55 -1.73 0.11 -18.03c0.28,-24.8 -12.74,-40.39 -33.63,-40.54 -20.91,-0.17 -34.22,15.21 -34.46,40.05l-3.64 385.93zm-382.2 -185.45c-1.65,-77.15 25.72,-168.91 109.29,-171.59 83.61,-2.65 114.97,87.31 116.7,164.39 1.7,77.19 -25.68,168.98 -109.29,171.59 -83.57,2.65 -114.97,-87.27 -116.7,-164.39zm285.89 -205.53c-0.59,-26.53 -19.36,-36.26 -32.52,-35.84 -13.9,0.42 -31.51,11.36 -30.94,37.89l0.53 23.98 -1.52 0.11c-32.62,-37.57 -66.32,-58.84 -113.56,-57.36 -116.09,3.7 -178.61,118 -176,238.9 2.69,120.83 70.2,231.25 186.27,227.54 44.07,-1.41 82.26,-25.08 110.7,-72.25l1.56 -0.07 0.7 31.75c0.6,26.53 18.62,36.44 32.52,36.02 13.16,-0.42 31.5,-11.46 30.91,-38.06l-8.65 -392.61zm-750.6 426.23c1.66,23.14 13.69,40.11 39.12,37.78l130.46 -11.68c115.79,-10.37 174.16,-98.18 167.5,-193.92 -5.54,-80.33 -62.41,-138.08 -129.3,-139.74l-0.09 -1.72c43.7,-19.41 71.78,-73.52 67.12,-140.2 -4.75,-69.25 -60.99,-140.76 -158.33,-132.01l-119.58 10.73c-25.47,2.29 -35.04,21.27 -33.45,44.31l36.55 526.45zm50.69 -254.82l98.79 -8.85c71.01,-6.39 115.38,39.58 119.69,101.95 4.7,67.52 -40.82,117.16 -107.18,123.12l-95.7 8.61 -15.6 -224.83zm-17.67 -253.78l79.52 -7.17c60.21,-5.39 91.54,31.33 95.28,86.08 3.92,55.53 -26.35,101.22 -84.21,106.44l-77.22 6.95 -13.37 -192.3zm-429.54 648.86c-4.73,14.39 -6.25,23.21 -5.26,32.56 1.91,18.77 17.88,30.55 34.04,28.44 20.04,-2.54 26.92,-18.98 32.95,-36.16l33.59 -99.38c4.8,-14.47 6.2,-23.21 5.22,-32.6 -1.87,-18.76 -17.85,-30.48 -33.98,-28.4 -20.03,2.58 -26.91,18.95 -32.98,36.13l-33.58 99.41zm-390.31 158.01c3.27,24.59 18.27,37.68 39.01,34.15 20.64,-3.49 31.64,-20.88 28.4,-45.47l-26.59 -199.39 1.51 -0.29c21.35,25.05 63.28,51.93 116.87,42.9 110.32,-18.48 159.03,-140.4 143.12,-259.96 -15.98,-119.56 -94.37,-219.92 -204.64,-201.37 -53.59,9 -86.75,36.27 -100.47,80.19l-1.56 0.25 -2.92 -22.09c-3.25,-24.52 -18.35,-37.67 -39.02,-34.14 -20.7,3.49 -31.65,20.92 -28.37,45.47l74.66 559.75zm11.29 -379.13c-10.2,-76.27 6.94,-171.06 89.67,-184.93 82.65,-13.9 123.75,71.05 133.95,147.32 10.16,76.34 -6.95,171.07 -89.68,185 -82.72,13.87 -123.79,-71.05 -133.94,-147.39zm-469.31 146.86c19.72,131.9 106.29,164.5 187.96,149.12 81.74,-15.34 154.09,-77.75 134.34,-209.69l-36.02 -240.91c-3.66,-24.52 -18.94,-37.33 -39.51,-33.45 -20.67,3.92 -31.4,21.59 -27.73,46.08l35.67 238.44c11.5,76.9 -12.99,123.23 -76.34,135.15 -63.39,11.89 -100.05,-22.9 -111.52,-99.84l-35.69 -238.44c-3.64,-24.52 -18.92,-37.32 -39.52,-33.44 -20.64,3.88 -31.33,21.55 -27.66,46.07l36.02 240.91zm-372.67 40.39c-13.8,-75.56 -1.17,-171.16 80.78,-189.9 81.95,-18.62 126.97,63.86 140.76,139.39 13.76,75.63 1.16,171.23 -80.79,189.9 -81.98,18.66 -127.03,-63.78 -140.75,-139.39zm-66.82 15.21c21.59,118.43 105.34,214.1 219.22,188.14 113.8,-25.93 157.51,-150.64 135.92,-269.07 -21.59,-118.39 -105.37,-213.92 -219.18,-187.99 -113.84,25.96 -157.55,150.53 -135.96,268.92zm-185.07 262.61c5.23,24.13 21.24,35.84 41.6,30.41 20.31,-5.44 29.88,-24.03 24.65,-48.19l-45.33 -210.86c-18.52,-85.87 22.65,-131.3 60.22,-149.26 26.64,-13.33 37.33,-30.3 32.88,-51.15 -4.51,-20.85 -21.66,-33.87 -45.05,-27.62 -38.38,10.33 -66.14,62.76 -73.8,100.96l-1.52 0.42 -8.14 -37.57c-5.15,-24.09 -21.21,-35.73 -41.56,-30.23 -20.25,5.47 -29.88,23.92 -24.66,48.05l80.71 375.04zm-184.11 -197.21l9.21 34.54c20.95,78.85 -3.07,192.26 -105.49,226.1 -123.32,40.74 -202.84,-67.07 -232.55,-178.76 -29.7,-111.72 -14.21,-250.96 104.64,-290.23 95,-31.39 139.2,25.51 171.91,14.64 18.59,-6.1 27.02,-25.85 21.97,-44.76 -8.28,-31.23 -97.64,-69.64 -206.12,-33.8 -165.56,54.75 -202.64,225.18 -162.21,377.23 40.43,152.01 158.57,271.32 310.83,220.98 179.74,-59.38 188.56,-214.46 150.96,-355.78 -12,-45.16 -29.81,-54.47 -63.22,-43.46l-109.93 36.37c-18.55,6.1 -29.1,21.2 -23,44.27 6.11,22.97 22.37,29.25 40.96,23.11l92.04 -30.45zm-761.22 -81.06c-7.91,-23.29 -25.05,-32.6 -44.63,-24.45 -19.58,8.18 -27.1,27.73 -19.23,51.01l184.51 548.92c7.83,23.25 25.08,32.74 44.66,24.59 19.54,-8.18 27.02,-27.9 19.19,-51.15l-184.5 -548.92zm-295.98 546.59c-24.28,-72.21 -25.34,-168.73 53.05,-201.4 78.36,-32.6 134.55,40.99 158.82,113.21 24.28,72.21 25.33,168.73 -53.06,201.36 -78.35,32.67 -134.51,-40.89 -158.82,-113.17l0.01 0zm210.29 -297.08c-8.36,-24.9 -29,-27.26 -41.32,-22.15 -13.08,5.47 -26.52,22.05 -18.13,46.92l7.55 22.51 -1.41 0.6c-41.98,-23.71 -80.15,-31.61 -124.46,-13.2 -108.83,45.37 -134.44,175.86 -96.38,289.07 38.03,113.13 134.41,193.01 243.24,147.67 41.35,-17.21 70.52,-53.37 83.57,-108.16l1.49 -0.63 9.95 29.7c8.36,24.91 28.32,27.69 41.41,22.26 12.35,-5.11 26.42,-22.15 18.03,-47.06l-123.54 -367.53zm-487.44 6.6c-8.96,-22.79 -26.56,-31.04 -45.72,-21.83 -19.15,9.34 -25.75,29.31 -16.83,52.07l210.3 537.35c8.92,22.75 26.56,31.25 45.71,21.98 19.2,-9.32 25.65,-29.46 16.8,-52.18l-210.26 -537.39zm-273.58 572.21c-29.88,-69.57 -38.52,-165.63 37.01,-205.67 75.53,-40.08 137.3,27.8 167.14,97.33 29.92,69.64 38.53,165.63 -37,205.71 -75.49,40.03 -137.23,-27.8 -167.15,-97.37zm186.2 -316.13c-10.3,-24.02 -31.12,-24.37 -42.97,-18.06 -12.59,6.63 -24.62,24.49 -14.39,48.47l9.31 21.66 -1.37 0.71c-43.68,-19.55 -82.34,-23.74 -124.99,-1.09 -104.92,55.63 -120.2,188.1 -73.35,297.11 46.78,108.97 149.12,179.24 254,123.57 39.83,-21.09 66.15,-59.9 74.83,-115.74l1.37 -0.74 12.28 28.57c10.3,23.99 30.41,24.84 43,18.21 11.89,-6.36 24.63,-24.66 14.33,-48.62l-152.05 -354.05zm-468.88 891.86c10.34,22.08 28.4,28.97 46.99,18.24 18.56,-10.72 23.81,-31.15 13.48,-53.23l-83.75 -178.65 1.34 -0.74c27.59,15.91 75.18,26.14 123.33,-1.7 98.99,-57.29 109.29,-189.97 59.02,-297.03 -50.16,-107.11 -153.95,-173.68 -252.87,-116.38 -48.12,27.86 -71.55,65.51 -71.62,111.93l-1.33 0.85 -9.32 -19.79c-10.3,-22.02 -28.4,-28.93 -46.95,-18.21 -18.59,10.76 -23.82,31.19 -13.52,53.2l235.2 501.51zm-100.78 -361.98c-32,-68.34 -43.72,-164.01 30.54,-206.94 74.23,-42.97 138.15,22.43 170.18,90.8 32.07,68.4 43.68,164.01 -30.55,206.94 -74.22,42.97 -138.07,-22.4 -170.17,-90.8zm-328.23 427.18c11.01,21.55 29.35,27.9 47.59,16.47 18.2,-11.47 22.75,-32.24 11.78,-53.87l-113.27 -222.11c-28.86,-56.62 -18.42,-109.43 29.49,-139.56 48.58,-30.55 94.75,-13.3 123.61,43.29l113.24 222.14c11.05,21.59 29.35,28.01 47.63,16.48 18.2,-11.36 22.71,-32.18 11.71,-53.8l-112.11 -219.89c-56.94,-111.72 -146.23,-106.89 -201.51,-72.1 -51.96,32.66 -70.73,77.92 -75.74,136.24 -52.81,-33.76 -97.62,-27.24 -132.68,-5.22 -53.94,33.93 -61.74,76.27 -65.65,105.27l-2.12 -0.57 -6.1 -11.96c-10.97,-21.59 -29.32,-27.87 -47.52,-16.4 -18.24,11.43 -22.83,32.07 -11.82,53.73l170.99 335.38c11.04,21.59 29.39,27.94 47.62,16.48 18.21,-11.4 22.72,-32.21 11.72,-53.77l-113.24 -222.18c-28.86,-56.62 -18.38,-109.46 29.52,-139.56 48.58,-30.51 94.72,-13.3 123.62,43.33l113.24 222.18zm-626.85 181.78c-35.21,-66.36 -51.37,-161.18 20.71,-208.38 72.14,-47.21 139.06,14.42 174.27,80.82 35.24,66.43 51.4,161.18 -20.75,208.38 -72.07,47.17 -138.96,-14.39 -174.23,-80.82zm160.73 -332.81c-12.18,-22.86 -32.89,-21.27 -44.25,-13.83 -11.99,7.87 -22.64,26.81 -10.51,49.64l10.98 20.71 -1.35 0.84c-45.01,-15.31 -83.96,-15.7 -124.67,10.97 -100.15,65.51 -104.91,198.94 -49.71,302.97 55.25,104.03 162.74,164.11 262.93,98.57 38,-24.91 61.14,-66.11 65.37,-122.52l1.34 -0.89 14.54 27.31c12.13,22.89 32.24,21.8 44.27,13.93 11.32,-7.41 22.58,-26.91 10.41,-49.77l-179.35 -337.93zm-243.14 623.08c10.62,21.76 28.89,28.5 47.31,17.35 18.41,-11.11 23.28,-31.75 12.59,-53.55l-108.62 -222.07c-55.17,-112.86 -144.5,-109.72 -200.31,-75.99 -36.08,21.77 -66.21,59.44 -74.36,113.14l-2.08 -0.71 -93.91 -191.88c-10.66,-21.9 -28.86,-28.43 -47.24,-17.32 -18.38,11.05 -23.35,31.61 -12.67,53.45l251.82 514.77c10.65,21.84 28.93,28.51 47.3,17.47 18.42,-11.08 23.29,-31.83 12.6,-53.59l-106.75 -218.27c-34.22,-70.02 -3.95,-125.34 35.52,-149.15 39.55,-23.85 97.72,-21.94 132.01,48.05l106.79 218.3zm-698.71 113.17c-48.48,-103.37 -57.26,-243.14 51.33,-305.93 75.63,-43.82 114.33,1.45 141.81,-14.5 15.1,-8.68 17.96,-28.75 9.77,-46.25 -12.83,-27.3 -92.04,-47.2 -178.68,2.93 -144.95,83.92 -154.8,260.56 -88.86,401.11 65.9,140.58 201.86,232.97 343.43,151.02 85.94,-49.67 136.06,-131.06 120.01,-165.2 -8.89,-19.02 -24.23,-25.58 -38.66,-17.25 -25.44,14.74 -34.93,82.05 -108.52,124.6 -103.71,60.04 -203.23,-27.24 -251.63,-130.53zm-251.14 452.08c9.59,22.4 27.58,30.16 46.49,20.11 18.84,-9.98 24.69,-30.37 15.06,-52.77l-227.04 -528.78c-9.63,-22.47 -27.52,-30.06 -46.43,-20.01 -18.87,10.02 -24.8,30.2 -15.17,52.67l86.01 200.21 -1.45 0.74c-26.98,-16.97 -74.19,-28.97 -123.19,-3 -100.68,53.41 -115.25,185.52 -68.4,294.53 46.78,108.98 148.41,179.6 249.1,126.19 48.96,-25.96 73.48,-62.86 75,-109.22l1.41 -0.78 8.61 20.11zm-68.41 -177.3c29.92,69.64 38.52,165.63 -37.01,205.67 -75.49,40.07 -137.23,-27.77 -167.14,-97.33 -29.88,-69.57 -38.53,-165.63 37,-205.71 75.54,-40.04 137.31,27.83 167.15,97.37zm-552.06 499.67c9.28,22.61 27.06,30.69 46.11,21.06 19.05,-9.63 25.22,-29.91 15.94,-52.53l-92.74 -225.99c-29.71,-72.56 3.95,-125.41 44.83,-146.12 40.93,-20.74 98.85,-14.39 128.63,58.21l92.71 225.99c9.28,22.61 27.06,30.66 46.11,21.03 19.05,-9.63 25.22,-29.92 15.98,-52.5l-94.33 -229.94c-47.98,-116.91 -137.27,-120.68 -195.02,-91.33 -37.39,18.94 -69.78,54.22 -81.25,107.14l-2.08 -0.85 -6.73 -16.4c-9.25,-22.58 -27.03,-30.55 -46.04,-20.89 -19.02,9.63 -25.3,29.78 -15.98,52.32l143.86 350.8zm-412.33 -20.07c-26.53,-71.19 -30.65,-167.64 46.71,-203.27 77.26,-35.67 135.71,35.7 162.24,106.92 26.57,71.27 30.62,167.64 -46.67,203.31 -77.29,35.63 -135.75,-35.74 -162.28,-106.96zm200.8 -304.98c-9.13,-24.55 -29.84,-26.14 -42.01,-20.53 -12.84,5.93 -25.79,23.04 -16.65,47.59l8.25 22.15 -1.41 0.67c-42.61,-22.04 -81.1,-28.46 -124.74,-8.36 -107.35,49.5 -128.84,180.91 -87.24,292.56 41.55,111.55 140.37,187.65 247.75,138.15 40.75,-18.77 68.86,-56.02 80.15,-111.27l1.45 -0.67 10.87 29.25c9.13,24.55 29.24,26.56 42.08,20.64 12.21,-5.61 25.72,-23.15 16.58,-47.7l-135.08 -362.48zm-323.1 575.7c7.09,23.53 24.05,33.62 43.91,26.28 19.8,-7.44 27.84,-26.88 20.75,-50.41l-72.07 -239.78c-36.62,-121.82 -124.99,-135.86 -185.21,-113.39 -38.95,14.5 -74.47,45.87 -90.88,97.16l-1.97 -1.06 -62.34 -207.19c-7.05,-23.6 -23.95,-33.54 -43.78,-26.14 -19.79,7.41 -27.94,26.67 -20.85,50.2l167.15 555.84c7.09,23.57 23.99,33.69 43.81,26.25 19.87,-7.38 27.91,-26.81 20.82,-50.38l-70.84 -235.65c-22.72,-75.57 15.77,-124.25 58.31,-140.13 42.65,-15.91 99.63,-2.82 122.35,72.74l70.84 235.66zm-645.09 28.72c32.59,115.21 120.57,202.17 240.27,160.09 67.21,-23.67 95.04,-65.97 87.38,-92.89 -5.57,-19.68 -18.9,-26.64 -33.69,-21.41 -20.67,7.26 -25.54,35.91 -71.36,52 -80.51,28.36 -136.77,-47.1 -157.62,-120.65 -20.78,-73.56 -13.59,-171.35 66.92,-199.68 44.31,-15.59 60.36,3.92 85.55,-4.9 15.48,-5.47 22.15,-24.87 18.02,-39.58 -8.39,-29.42 -54.71,-41.03 -121.18,-17.68 -119.69,42.16 -147,169.48 -114.29,284.7zm-165.21 265.39c6.7,23.67 23.49,34.11 43.39,27.13 19.97,-7.06 28.33,-26.32 21.63,-49.99l-58.6 -206.8c-23.85,-84.17 14.43,-132.68 50.73,-153.53 25.75,-15.31 35.35,-33.09 29.6,-53.55 -5.79,-20.39 -23.75,-32.1 -46.68,-23.99 -37.64,13.27 -62.08,67.63 -67.31,106.33l-1.48 0.53 -10.44 -36.76c-6.7,-23.67 -23.42,-33.97 -43.39,-26.99 -19.93,6.99 -28.32,26.14 -21.61,49.85l104.16 367.77zm-405.36 -91.93c-14.96,-75.32 -3.86,-171.1 77.79,-191.38 81.66,-20.26 128,61.31 142.95,136.56 14.96,75.35 3.86,171.16 -77.79,191.41 -81.69,20.25 -127.99,-61.27 -142.95,-136.59zm245.45 -261.98c-5.16,-25.92 -25.27,-31.53 -38.15,-28.29 -13.56,3.39 -29,17.78 -23.84,43.71l4.68 23.39 -1.52 0.39c-38.52,-29.95 -75.37,-43.68 -121.45,-32.25 -113.43,28.12 -155.18,153.57 -131.78,271.54 23.5,117.97 108.79,211.98 222.21,183.86 43.1,-10.72 76.53,-42.05 96.36,-94.29l1.46 -0.36 6.16 30.87c5.12,26 24.57,31.86 38.17,28.47 12.85,-3.17 28.94,-17.88 23.82,-43.81l-76.13 -383.23 0.01 0zm-737.45 573.55c13.47,26.99 25.71,35.28 44.78,31.68 18.31,-3.42 28.24,-15.87 32.35,-46.18l41.65 -319.9 1.58 -0.28 132.45 287.16c12.69,27.13 25.65,35.31 44.03,31.86 19.03,-3.57 28.2,-15.91 33.08,-46.32l57.77 -380.3c1.43,-11.57 2.22,-22.15 1.08,-29.77 -2.15,-14.36 -14.14,-31.26 -37.03,-26.95 -14.49,2.71 -27.39,11.25 -31.72,45.12l-40.42 323.07 -1.55 0.32 -129 -280c-13.95,-30.41 -22.58,-46.14 -47.06,-41.56 -24.42,4.59 -27.99,22.65 -32.35,56.48l-40.55 311.86 -1.51 0.28 -132.23 -290.69c-13.92,-30.37 -28.59,-33.73 -43.11,-31.01 -22.89,4.3 -29.28,24.62 -27.14,38.98 1.14,7.62 4.97,17.39 9.68,27.77l165.22 338.38zm-453.55 -168.27c-4.65,-69.29 17.87,-147.32 102.03,-154.66 74.63,-9.63 116.06,60.96 122.61,125.73l-224.64 28.93zm260.35 23.38c29.28,-3.73 36.34,-18.45 33.68,-44.83 -11.04,-109.05 -86.98,-212.31 -198.58,-197.95 -114.58,14.75 -172.77,132.68 -160.34,255.31 12.17,120.12 80.39,224.54 211.19,207.68 79.95,-10.27 158.16,-77.44 154.46,-114.09 -2.18,-21.31 -15.71,-31.61 -28.05,-30.02 -25.36,3.21 -42.25,67.56 -132.26,79.13 -76.12,9.77 -126.85,-44.88 -134.69,-122.38l254.59 -32.85zm-440.74 206.56c0.54,24.87 14.04,40.04 34.95,39.37 20.93,-0.64 33.74,-16.69 33.2,-41.53l-5.59 -252.87c-2.82,-128.51 -83.56,-170.6 -146.94,-168.59 -41.05,1.27 -83.27,19.79 -112.46,63.57l-1.64 -1.62 -4.81 -218.58c-0.57,-24.87 -14.07,-39.87 -34.94,-39.2 -20.85,0.67 -33.72,16.48 -33.15,41.35l12.9 586.28c0.57,24.84 14.05,40.04 34.95,39.33 20.87,-0.63 33.71,-16.65 33.14,-41.48l-5.47 -248.57c-1.77,-79.73 47.85,-113.88 92.73,-115.29 44.88,-1.44 95.89,29.57 97.66,109.29l5.47 248.54zm-365.31 -239.93l-2.59 35.95c-6.01,82.09 -65.02,178.54 -171.5,169.58 -128.09,-10.87 -167.37,-143.23 -158.92,-259.47 8.44,-116.27 67.9,-240.31 191.39,-229.87 98.74,8.36 121.54,79.09 155.54,81.99 19.26,1.62 33.55,-13.51 34.98,-33.16 2.37,-32.5 -68.51,-103.86 -181.22,-113.46 -172.04,-14.53 -261.73,130.18 -273.21,288.36 -11.51,158.19 60.02,316.66 218.21,330.03 186.75,15.77 245.17,-125.66 255.86,-272.77 3.38,-46.99 -10.22,-62.76 -44.91,-65.69l-114.2 -9.7c-19.33,-1.62 -34.03,8.36 -35.77,32.32 -1.74,23.84 11.35,36.19 30.67,37.85l95.67 8.04zm-922.64 -112.92c15.18,-75.39 61.79,-157.24 143.39,-137.37 81.59,19.82 92.38,115.6 77.2,190.95 -15.22,75.39 -61.8,157.17 -143.43,137.38 -81.56,-19.83 -92.38,-115.61 -77.16,-190.96zm321.95 -122.98c5.21,-25.97 -10.88,-40.47 -23.69,-43.57 -13.6,-3.31 -33.02,2.58 -38.27,28.54l-4.71 23.46 -1.49 -0.39c-23.43,-45.26 -51.49,-74.93 -97.53,-86.11 -113.38,-27.55 -198.99,66.78 -222.77,184.86 -23.81,118.11 17.49,243.45 130.83,270.96 43.04,10.45 85.2,-2.32 123.09,-40.5l1.52 0.32 -6.3 31.01c-5.18,25.97 10.09,40.39 23.69,43.68 12.84,3.13 33.02,-2.69 38.27,-28.65l77.36 -383.61zm-551.21 241.93c-8.25,23.15 -1.2,42.94 18.28,51.4 19.42,8.44 36.85,-0.74 45.13,-23.88l84.06 -235.62c42.73,-119.73 -16.6,-193.5 -75.58,-219.14 -38.11,-16.55 -83.5,-17.78 -125.78,9.98l-0.89 -2.15 72.68 -203.7c8.29,-23.21 1.17,-42.83 -18.25,-51.26 -19.42,-8.43 -36.81,0.6 -45.06,23.78l-194.94 546.24c-8.26,23.14 -1.24,42.97 18.18,51.4 19.42,8.47 36.88,-0.77 45.13,-23.92l82.67 -231.56c26.5,-74.33 84.13,-84.35 125.87,-66.22 41.75,18.14 77.67,68.8 51.17,143.05l-82.67 231.6zm-200.63 -733.28c-90.51,-52.04 -179.89,-6.6 -209.65,56.62 -83.58,177.48 177.71,248.25 117.08,376.94 -28.3,60.15 -89.75,88.73 -152.12,52.88 -61.8,-35.52 -70.9,-93.9 -91.46,-105.76 -17.14,-9.84 -32.92,1.45 -41.56,19.65 -2.24,4.77 -3.28,10.01 -3.27,15.61 0.06,39.17 51.82,95.7 108.21,128.08 106.36,61.14 203.79,13.4 246.14,-76.45 86.05,-182.77 -172.71,-258.87 -116.38,-378.49 21.47,-45.69 69.16,-57.93 113.72,-32.39 60.38,34.72 52.82,74.9 79.57,90.28 15.12,8.64 32.52,1.3 40.04,-14.78 16.51,-34.97 -29.91,-97.51 -90.32,-132.19z"/>
   <path class="fil1" d="M11973.1 5117.52l165.25 -31.06c17.11,-3.22 28.64,-21.09 25.82,-40.03 -2.86,-18.95 -18.95,-31.63 -36.06,-28.4l-201 37.75c-17.12,3.23 -23.75,9.12 -23.82,25.78l3.46 230.01c0.53,20.24 0.74,44.31 2.22,54.21 1.9,12.62 11,22.93 28.04,19.74 20.36,-3.83 41.98,-32.9 94.9,-42.83 70.03,-13.16 109.11,41.53 120.44,117.21 11.18,74.82 -20.78,146.55 -89.92,159.55 -82.23,15.46 -118.29,-46.3 -147.54,-40.8 -17.92,3.36 -23.39,22.9 -20.92,39.09 5.79,38.8 82.66,93.96 178.69,75.94 117.23,-22.05 174.51,-125.59 153.91,-263.44 -14.95,-100.04 -86.92,-183.78 -177.23,-166.8 -26.88,5.03 -52.21,14.46 -73.84,32.39l-2.4 -178.31zm-471.73 437.86l121.74 -360.95 1.66 -0.31 49.18 328.84 -172.58 32.42zm182.81 36.05l19.12 127.92c3.92,26.12 20.18,39.95 42.19,35.81 21.94,-4.15 33.3,-23.12 29.42,-49.25l-19.12 -127.92 36.63 -6.9c17.07,-3.19 28.6,-21.12 25.78,-40.03 -2.78,-18.92 -18.95,-31.66 -36.02,-28.43l-36.65 6.86 -51.97 -347.76c-7.02,-46.84 -32.67,-61.48 -64.42,-55.53 -25.15,4.74 -40.11,16.82 -50.76,46.61l-149.44 410.63c-7.76,20.9 -12.77,37.6 -11.01,49.3 2.41,16.2 10.66,26.73 35.07,22.15l231.18 -43.46zm-426.12 -196.9c11.08,73.91 -10.16,144.56 -81,157.88 -70.8,13.31 -109.79,-34.95 -122.45,-119.64 -11.18,-74.77 10.16,-144.57 80.96,-157.85 70.84,-13.32 111.34,44.85 122.49,119.61l0 0zm-134.34 -193.33c-102.55,19.26 -163.58,126.12 -146.23,242.38 16.76,111.7 83.72,201.05 178.08,183.3 39.06,-7.33 63.61,-22.17 88.2,-42.53l1.62 -0.32c-30.58,97.44 -58.35,147.15 -97.82,201.77 -17.39,23.69 -24.06,35.14 -22.19,47.72 3.63,24.32 23.46,33.75 34.85,31.6 9.74,-1.84 18.03,-8 30.66,-24.42 75.64,-98.54 168.03,-264.1 140.02,-451.51 -19.16,-127.93 -106.3,-206.96 -207.19,-187.99l0 0zm-281.55 679.98c3.88,26.12 20.14,39.95 42.15,35.8 21.98,-4.14 33.34,-23.11 29.42,-49.24l-87.13 -582.92c-2.96,-19.83 -11.36,-20.08 -25.19,-17.49l-124.56 23.4c-17.08,3.23 -28.65,21.1 -25.79,40.04 2.82,18.94 18.98,31.63 36.02,28.4l74.93 -14.07 80.15 536.08zm-807.02 -399.49l97.65 -18.34c136.78,-25.72 208.03,81.34 227.68,212.9 19.51,130.61 -12.2,265.34 -147.32,290.73l-102.58 19.26 -75.43 -504.55zm7.59 543.26c3.63,24.32 17.85,41.12 44.76,36.06l150.54 -28.31c155.47,-29.19 227.64,-178.9 198.96,-370.81 -25.33,-169.39 -132.08,-301.26 -304.62,-268.82l-140.79 26.44c-26.89,5.06 -35.46,26.1 -31.83,50.44l82.98 555zm-266.81 56.61c3.92,26.13 20.22,39.92 42.19,35.81 21.98,-4.15 33.34,-23.15 29.43,-49.25l-79.35 -530.68 108.27 -20.36c20.33,-3.83 33.27,-18.28 29.49,-43.52 -3.8,-25.21 -20.21,-34.15 -40.53,-30.33l-288.11 54.14c-20.36,3.83 -33.23,18.29 -29.49,43.49 3.77,25.24 20.14,34.19 40.53,30.36l108.23 -20.34 79.34 530.68zm-433.84 -545.54c-107.42,20.17 -157.49,122.24 -146.3,197 31.39,209.92 295.45,84.31 318.2,236.59 10.66,71.15 -25.22,139.06 -99.27,152.97 -73.23,13.79 -114.86,-29.34 -139.28,-24.76 -20.35,3.82 -27.26,24.57 -24.02,46.2 6.74,45.04 96.27,61.74 172.76,47.35 126.12,-23.69 181.68,-133.43 165.77,-239.72 -32.32,-216.23 -297.32,-97 -318.46,-238.43 -8.11,-54.08 25.51,-98.32 78.39,-108.25 71.65,-13.48 88.37,25.96 120.12,19.98 17.93,-3.35 28.54,-22.01 25.72,-40.95 -6.21,-41.47 -82.02,-61.45 -153.63,-47.98l0 0zm-381.96 445.04l157.1 -29.54c20.32,-3.8 33.23,-18.25 29.45,-43.45 -3.77,-25.28 -20.18,-34.22 -40.5,-30.4l-157.09 29.51 -31.39 -209.93 172.54 -32.42c20.39,-3.83 33.23,-18.27 29.49,-43.51 -3.81,-25.21 -20.18,-34.16 -40.53,-30.33l-205.92 38.67c-26.88,5.07 -35.42,26.1 -31.79,50.45l82.94 555.03c3.64,24.28 17.89,41.08 44.77,36.02l205.91 -38.68c20.36,-3.83 33.24,-18.34 29.46,-43.55 -3.77,-25.2 -20.14,-34.18 -40.5,-30.36l-172.57 32.42 -31.37 -209.93z"/>
   <path class="fil1" d="M15504.34 4629.06l55.38 -12.11c78.89,-17.23 127.14,-31.02 145.07,-41.15 17.57,-10.37 30.3,-24.09 37.95,-41.77 7.98,-17.72 9.56,-36.15 5.37,-55.38 -4.13,-18.94 -13.13,-34.44 -27.03,-46.52 -13.96,-12.37 -31.5,-19.48 -53.02,-21.6 -21.12,-1.9 -70.7,5.66 -148.48,22.64l-55.39 12.12 40.15 183.77zm-53.3 412.4l-147.04 -673.16 136.88 -29.88c128.05,-27.99 199.95,-43.1 215.47,-45.29 46.04,-6.2 83.36,-4.87 111.62,3.77 28.26,8.63 53.87,25.55 76.83,50.76 23.32,25.39 38.84,55.78 46.57,91.14 10.55,48.32 3.81,93.36 -20.6,134.82 -24.1,41.68 -64.1,72.65 -119.66,93.65 22.01,3.19 39.68,8.22 52.74,14.86 12.98,6.6 32.03,20.56 56.79,41.81 6.5,5.41 28.89,29.22 67.63,71.09l109.12 118.38 -168.77 36.87 -80.37 -96.8c-53.97,-65.22 -95.78,-104.68 -124.78,-118.19 -28.74,-13.56 -62.47,-16.25 -100.64,-7.94l-35.34 7.75 60.39 276.5 -136.84 29.86zm101.99 -912.34c-87.36,19.07 -166.31,59.11 -236.79,120.12 -70.52,61 -119.88,137.54 -148.1,229.32 -28.5,91.8 -32.7,182.51 -13.2,271.82 19.45,89.05 60.58,168.97 123.16,239.69 62.55,70.77 139.07,120.12 229.48,147.76 90.49,27.63 179.95,31.78 268.47,12.46 88.76,-19.4 168.34,-60.47 239.04,-123.31 70.42,-62.78 119.41,-139.54 147.07,-229.98 27.63,-90.46 31.72,-180.21 12.24,-269.27 -19.5,-89.34 -61.1,-170.02 -125.02,-241.65 -63.92,-71.63 -141.01,-120.59 -230.79,-146.58 -89.81,-26 -178.5,-29.41 -265.57,-10.38l0.01 0zm-28.05 -124.23c45.93,-10.03 92.1,-15.06 138.53,-15.06 63.61,0.01 127.71,9.45 192.3,28.41 111.94,32.42 207.57,93.3 286.84,182.33 79.35,89.28 131.1,189.37 155.3,300.16 24.17,110.56 19.19,222.13 -14.93,334.44 -34.39,112.36 -95.32,207.74 -183.44,285.61 -87.88,77.86 -187.22,128.87 -297.46,152.94 -110.56,24.16 -221.87,19.13 -334.44,-14.93 -112.28,-34.09 -207.71,-95.32 -285.57,-183.17 -77.78,-87.86 -128.83,-187.19 -152.96,-297.76 -24.24,-110.82 -18.91,-223.34 16.01,-337.6 34.93,-113.99 96.49,-209.17 184.4,-285.23 88.2,-76.45 186.62,-126.35 295.41,-150.13l0.01 -0.01z"/>
  </g>
 </g>
</svg>
